<svg xmlns="http://www.w3.org/2000/svg" viewBox="0 0 288 288" enable-background="new 0 0 288 288"><linearGradient id="a" gradientUnits="userSpaceOnUse" x1="-27.731" y1="-20.342" x2="134.212" y2="134.99"><stop offset="0" stop-color="#8BC53F"/><stop offset="1" stop-color="#009345"/></linearGradient><path fill="url(#a)" d="M284.7 173.8c-2.8-42-30.2-29.8-30.2-29.8-1.1-24.5-17.4-36.6-17.4-36.6 6.7-7 12-15.9 12-15.9 3.5-7.3.5-5.9.5-5.9-20.8 17.8-66.2 17.3-66.2 17.3h-1.1s-45.4.6-66.2-17.3c0 0-2.9-1.4.5 5.9 0 0 5.3 8.9 12 15.9 0 0-16.3 12-17.4 36.6 0 0-29.1-13.1-30.4 33.7 0 0 0 38.2 19.9 72.9C70.1 228.7 50 192.9 50 152.3c0-66.6 54-120.6 120.6-120.6 46.7 0 87.2 26.6 107.2 65.4C258.3 42 205.8 2.5 144 2.5 65.6 2.5 2 66.1 2 144.5s63.6 142 142 142c108.2-.1 136.8-72.5 140.7-112.7z"/><circle fill="#fff" cx="158.1" cy="144.1" r="21.5"/><circle fill="#fff" cx="209.3" cy="144.1" r="21.5"/><path fill="#009345" d="M164.4 133.3l-6.3 10.6-5.3-11.1c-4.2 2-7.1 6.2-7.1 11.1 0 6.8 5.5 12.4 12.4 12.4 6.8 0 12.4-5.5 12.4-12.4 0-4.6-2.5-8.5-6.1-10.6zM215.6 133.3l-6.3 10.6-5.3-11.1c-4.2 2-7.1 6.2-7.1 11.1 0 6.8 5.5 12.4 12.4 12.4 6.8 0 12.4-5.5 12.4-12.4 0-4.6-2.5-8.5-6.1-10.6z"/><path fill="#fff" d="M185.1 197.6c0-20.5 16.8-28 16.8-28-12.6 0-16.9-7.8-16.9-7.8h-.5s-4.3 7.8-16.9 7.8c0 0 16.8 7.5 16.8 28h.7z"/></svg>